<svg xmlns="http://www.w3.org/2000/svg" viewBox="0 0 40 40" fill="none">
  <path d="M20 0C31.0457 0 40 8.9543 40 20C40 31.0457 31.0457 40 20 40C8.9543 40 0 31.0457 0 20C0 8.9543 8.9543 0 20 0ZM20 5.38462C11.9512 5.38462 5.38462 11.9512 5.38462 20C5.38462 28.0488 11.9512 34.6154 20 34.6154C28.0488 34.6154 34.6154 28.0488 34.6154 20C34.6154 11.9512 28.0488 5.38462 20 5.38462Z" fill="#F22F46"/>
  <circle cx="15" cy="15" r="3.85" fill="#F22F46"/>
  <circle cx="25" cy="15" r="3.85" fill="#F22F46"/>
  <circle cx="15" cy="25" r="3.85" fill="#F22F46"/>
  <circle cx="25" cy="25" r="3.85" fill="#F22F46"/>
</svg>
